<?xml version="1.0" encoding="utf-8"?>
<svg width="1000px" height="174px" viewBox="0 0 74 13" version="1.1" xmlns="http://www.w3.org/2000/svg">
  <defs>
    <clipPath id="clip1">
      <path d="M 0.0507812 1.792969 L 48 1.792969 L 48 7.503906 L 0.0507812 7.503906 Z M 0.0507812 1.792969 "/>
    </clipPath>
    <clipPath id="clip4">
      <path d="M 59.273438 0 L 73.859375 0 L 73.859375 12.972656 L 59.273438 12.972656 Z M 59.273438 0 "/>
    </clipPath>
  </defs>
  <g id="surface1">
    <g clip-path="url(#clip1)" clip-rule="nonzero" transform="matrix(1, 0, 0, 1, 4, 2)">
      <path style=" stroke:none;fill-rule:nonzero;fill:rgb(0%,0%,0%);fill-opacity:1;" d="M 2.304688 7.472656 C 2.117188 7.472656 2.011719 7.429688 1.984375 7.34375 L 0.15625 2.039062 C 0.136719 2 0.128906 1.964844 0.128906 1.933594 C 0.128906 1.890625 0.15625 1.855469 0.214844 1.832031 C 0.273438 1.804688 0.359375 1.792969 0.472656 1.792969 L 0.546875 1.792969 C 0.726562 1.792969 0.835938 1.835938 0.867188 1.921875 L 2.34375 6.230469 L 2.425781 6.652344 L 2.445312 6.652344 L 2.539062 6.21875 L 4.011719 1.921875 C 4.042969 1.835938 4.152344 1.792969 4.332031 1.792969 L 4.378906 1.792969 C 4.609375 1.792969 4.726562 1.839844 4.726562 1.933594 C 4.726562 1.964844 4.714844 2 4.699219 2.046875 L 2.871094 7.34375 C 2.84375 7.429688 2.738281 7.472656 2.550781 7.472656 Z M 7.734375 7.503906 C 7.269531 7.503906 6.875 7.429688 6.550781 7.285156 C 6.222656 7.136719 5.976562 6.925781 5.808594 6.648438 C 5.640625 6.367188 5.554688 6.035156 5.554688 5.648438 L 5.554688 1.972656 C 5.554688 1.851562 5.664062 1.792969 5.875 1.792969 L 5.9375 1.792969 C 6.152344 1.792969 6.257812 1.851562 6.257812 1.972656 L 6.257812 5.675781 C 6.257812 5.914062 6.320312 6.121094 6.449219 6.308594 C 6.578125 6.492188 6.753906 6.636719 6.980469 6.738281 C 7.203125 6.839844 7.457031 6.890625 7.734375 6.890625 C 8.015625 6.890625 8.269531 6.839844 8.496094 6.734375 C 8.71875 6.632812 8.894531 6.484375 9.023438 6.300781 C 9.152344 6.117188 9.214844 5.910156 9.214844 5.675781 L 9.214844 1.972656 C 9.214844 1.851562 9.320312 1.792969 9.535156 1.792969 L 9.601562 1.792969 C 9.808594 1.792969 9.914062 1.851562 9.914062 1.972656 L 9.914062 5.648438 C 9.914062 6.035156 9.832031 6.367188 9.664062 6.648438 C 9.496094 6.925781 9.25 7.136719 8.921875 7.285156 C 8.597656 7.429688 8.199219 7.503906 7.734375 7.503906 Z M 11.59375 7.460938 C 11.511719 7.460938 11.449219 7.4375 11.410156 7.398438 C 11.371094 7.359375 11.351562 7.300781 11.351562 7.21875 L 11.351562 1.972656 C 11.351562 1.851562 11.460938 1.792969 11.675781 1.792969 L 11.738281 1.792969 C 11.953125 1.792969 12.058594 1.851562 12.058594 1.972656 L 12.058594 6.847656 L 14.257812 6.847656 C 14.3125 6.847656 14.351562 6.863281 14.378906 6.902344 C 14.402344 6.941406 14.414062 7 14.414062 7.085938 L 14.414062 7.21875 C 14.414062 7.300781 14.402344 7.359375 14.378906 7.398438 C 14.351562 7.4375 14.3125 7.460938 14.257812 7.460938 Z M 15.484375 7.472656 C 15.371094 7.472656 15.289062 7.457031 15.238281 7.429688 C 15.1875 7.402344 15.164062 7.355469 15.164062 7.296875 L 15.164062 1.972656 C 15.164062 1.851562 15.269531 1.792969 15.484375 1.792969 L 15.652344 1.792969 C 15.738281 1.792969 15.804688 1.804688 15.851562 1.828125 C 15.902344 1.851562 15.945312 1.894531 15.984375 1.949219 L 18.539062 5.835938 L 18.773438 6.289062 L 18.773438 1.972656 C 18.773438 1.851562 18.878906 1.792969 19.089844 1.792969 L 19.152344 1.792969 C 19.363281 1.792969 19.46875 1.851562 19.46875 1.972656 L 19.46875 7.296875 C 19.46875 7.355469 19.441406 7.402344 19.390625 7.429688 C 19.339844 7.457031 19.261719 7.472656 19.152344 7.472656 L 18.992188 7.472656 C 18.917969 7.472656 18.855469 7.464844 18.8125 7.445312 C 18.765625 7.425781 18.730469 7.398438 18.707031 7.359375 L 16.074219 3.347656 L 15.859375 2.929688 L 15.859375 7.296875 C 15.859375 7.414062 15.753906 7.472656 15.539062 7.472656 Z M 21.183594 7.472656 C 21.074219 7.472656 20.992188 7.457031 20.941406 7.429688 C 20.894531 7.402344 20.871094 7.355469 20.871094 7.296875 L 20.871094 2.054688 C 20.871094 1.96875 20.886719 1.90625 20.925781 1.871094 C 20.960938 1.832031 21.023438 1.816406 21.105469 1.816406 L 22.726562 1.816406 C 23.191406 1.816406 23.605469 1.929688 23.96875 2.152344 C 24.328125 2.378906 24.507812 2.792969 24.507812 3.394531 C 24.507812 3.839844 24.40625 4.1875 24.199219 4.4375 C 23.992188 4.683594 23.757812 4.847656 23.503906 4.929688 C 23.246094 5.011719 23.011719 5.054688 22.804688 5.054688 L 21.566406 5.054688 L 21.566406 7.296875 C 21.566406 7.355469 21.539062 7.402344 21.488281 7.429688 C 21.4375 7.457031 21.359375 7.472656 21.25 7.472656 Z M 21.566406 4.441406 L 22.816406 4.441406 C 22.949219 4.441406 23.089844 4.410156 23.238281 4.355469 C 23.382812 4.292969 23.511719 4.1875 23.621094 4.03125 C 23.726562 3.875 23.78125 3.664062 23.78125 3.394531 C 23.78125 3.035156 23.675781 2.78125 23.464844 2.640625 C 23.253906 2.496094 23 2.425781 22.703125 2.425781 L 21.566406 2.425781 Z M 25.757812 7.460938 C 25.675781 7.460938 25.613281 7.4375 25.574219 7.398438 C 25.535156 7.359375 25.515625 7.300781 25.515625 7.21875 L 25.515625 1.972656 C 25.515625 1.851562 25.621094 1.792969 25.839844 1.792969 L 25.902344 1.792969 C 26.113281 1.792969 26.21875 1.851562 26.21875 1.972656 L 26.21875 6.847656 L 28.417969 6.847656 C 28.476562 6.847656 28.515625 6.863281 28.539062 6.902344 C 28.5625 6.941406 28.574219 7 28.574219 7.085938 L 28.574219 7.21875 C 28.574219 7.300781 28.5625 7.359375 28.539062 7.398438 C 28.515625 7.4375 28.476562 7.460938 28.417969 7.460938 Z M 29.046875 7.472656 C 28.925781 7.472656 28.839844 7.460938 28.785156 7.4375 C 28.730469 7.417969 28.703125 7.382812 28.703125 7.335938 C 28.703125 7.316406 28.710938 7.277344 28.726562 7.226562 L 30.617188 1.921875 C 30.648438 1.835938 30.757812 1.792969 30.9375 1.792969 L 31.171875 1.792969 C 31.355469 1.792969 31.460938 1.835938 31.492188 1.921875 L 33.382812 7.230469 C 33.398438 7.265625 33.40625 7.300781 33.40625 7.335938 C 33.40625 7.425781 33.292969 7.472656 33.070312 7.472656 L 33 7.472656 C 32.816406 7.472656 32.707031 7.429688 32.675781 7.34375 L 32.210938 6.019531 L 29.863281 6.019531 L 29.40625 7.34375 C 29.378906 7.429688 29.273438 7.472656 29.085938 7.472656 Z M 30.085938 5.40625 L 31.992188 5.40625 L 31.160156 3.007812 C 31.136719 2.941406 31.117188 2.867188 31.097656 2.78125 C 31.085938 2.699219 31.070312 2.617188 31.058594 2.535156 L 31.042969 2.535156 C 31.003906 2.738281 30.964844 2.898438 30.921875 3.007812 Z M 34.546875 7.472656 C 34.433594 7.472656 34.351562 7.457031 34.296875 7.429688 C 34.246094 7.402344 34.222656 7.355469 34.222656 7.296875 L 34.222656 1.972656 C 34.222656 1.851562 34.332031 1.792969 34.546875 1.792969 L 34.710938 1.792969 C 34.796875 1.792969 34.863281 1.804688 34.914062 1.828125 C 34.960938 1.851562 35.007812 1.894531 35.046875 1.949219 L 37.597656 5.835938 L 37.835938 6.289062 L 37.835938 1.972656 C 37.835938 1.851562 37.941406 1.792969 38.152344 1.792969 L 38.214844 1.792969 C 38.421875 1.792969 38.527344 1.851562 38.527344 1.972656 L 38.527344 7.296875 C 38.527344 7.355469 38.503906 7.402344 38.449219 7.429688 C 38.398438 7.457031 38.320312 7.472656 38.214844 7.472656 L 38.050781 7.472656 C 37.976562 7.472656 37.917969 7.464844 37.871094 7.445312 C 37.828125 7.425781 37.792969 7.398438 37.769531 7.359375 L 35.136719 3.347656 L 34.917969 2.929688 L 34.917969 7.296875 C 34.917969 7.414062 34.8125 7.472656 34.601562 7.472656 Z M 40.261719 7.460938 C 40.179688 7.460938 40.117188 7.4375 40.078125 7.398438 C 40.039062 7.359375 40.019531 7.300781 40.019531 7.21875 L 40.019531 2.054688 C 40.019531 1.972656 40.039062 1.910156 40.078125 1.871094 C 40.117188 1.832031 40.179688 1.816406 40.261719 1.816406 L 43.046875 1.816406 C 43.105469 1.816406 43.144531 1.832031 43.171875 1.871094 C 43.199219 1.90625 43.210938 1.96875 43.210938 2.054688 L 43.210938 2.1875 C 43.210938 2.269531 43.199219 2.328125 43.171875 2.367188 C 43.144531 2.40625 43.105469 2.425781 43.046875 2.425781 L 40.722656 2.425781 L 40.722656 4.265625 L 42.808594 4.265625 C 42.867188 4.265625 42.90625 4.285156 42.933594 4.324219 C 42.957031 4.363281 42.972656 4.425781 42.972656 4.511719 L 42.972656 4.632812 C 42.972656 4.71875 42.957031 4.777344 42.933594 4.816406 C 42.90625 4.855469 42.867188 4.871094 42.808594 4.871094 L 40.722656 4.871094 L 40.722656 6.847656 L 43.058594 6.847656 C 43.113281 6.847656 43.15625 6.863281 43.179688 6.902344 C 43.207031 6.941406 43.21875 7 43.21875 7.085938 L 43.21875 7.21875 C 43.21875 7.300781 43.207031 7.359375 43.179688 7.398438 C 43.15625 7.4375 43.113281 7.460938 43.058594 7.460938 Z M 45.785156 7.472656 C 45.671875 7.472656 45.59375 7.457031 45.539062 7.429688 C 45.492188 7.402344 45.464844 7.355469 45.464844 7.296875 L 45.464844 2.425781 L 43.929688 2.425781 C 43.871094 2.425781 43.832031 2.40625 43.808594 2.367188 C 43.78125 2.328125 43.769531 2.269531 43.769531 2.1875 L 43.769531 2.054688 C 43.769531 1.972656 43.78125 1.910156 43.808594 1.871094 C 43.832031 1.832031 43.871094 1.816406 43.929688 1.816406 L 47.675781 1.816406 C 47.730469 1.816406 47.773438 1.832031 47.796875 1.871094 C 47.820312 1.910156 47.832031 1.972656 47.832031 2.054688 L 47.832031 2.1875 C 47.832031 2.269531 47.820312 2.328125 47.796875 2.367188 C 47.773438 2.40625 47.730469 2.425781 47.675781 2.425781 L 46.171875 2.425781 L 46.171875 7.296875 C 46.171875 7.414062 46.0625 7.472656 45.847656 7.472656 Z M 45.785156 7.472656 "/>
    </g>
    <g clip-path="url(#clip4)" clip-rule="nonzero" transform="matrix(1, 0, 0, 1, -4, 0)">
      <path style="stroke: none; fill-rule: nonzero; fill-opacity: 1; fill: rgb(27, 33, 90);" d="M 70.289062 0.136719 L 70.222656 0 L 62.929688 0 L 59.273438 6.488281 L 62.910156 12.972656 L 70.203125 12.972656 L 73.859375 6.488281 Z M 63.777344 2.324219 L 59.875 6.097656 L 62.976562 0.574219 Z M 70.019531 0.554688 L 71.089844 6.570312 L 64.378906 2.410156 Z M 64.144531 2.664062 L 70.988281 6.90625 L 64.144531 10.835938 Z M 71.070312 7.246094 L 69.871094 12.433594 L 64.429688 11.070312 Z M 63.8125 10.699219 L 59.875 6.570312 L 63.8125 2.746094 Z M 63.761719 11.136719 L 62.996094 12.433594 L 60.140625 7.347656 Z M 64.0625 11.304688 L 69.304688 12.636719 L 63.261719 12.636719 Z M 71.457031 7.042969 L 73.390625 6.621094 L 70.253906 12.214844 Z M 73.359375 6.300781 L 71.457031 6.722656 L 70.472656 1.144531 Z M 64.0625 2.15625 L 63.226562 0.335938 L 69.601562 0.335938 Z M 64.0625 2.15625 "/>
    </g>
  </g>
</svg>